<svg width="545" height="506" viewBox="0 0 545 506" fill="none" xmlns="http://www.w3.org/2000/svg">
<g clip-path="url(#clip0)">
<path d="M537.663 173.131C538.303 175.878 538.902 178.639 539.461 181.414H349.186V173.131H537.663Z" fill="#E6E6E6"/>
<path d="M531.598 151.297C528.535 141.788 524.963 132.486 520.901 123.441C519.651 120.652 518.353 117.891 517.007 115.158C516.786 114.689 516.55 114.22 516.314 113.751V175.392H532.756V154.965L531.598 151.297Z" fill="#E6E6E6"/>
<path d="M520.9 123.441H516.314V115.158H517.007C518.356 117.888 519.654 120.649 520.9 123.441Z" fill="#CCCCCC"/>
<path d="M531.598 151.297H516.314V159.58H532.756V154.965L531.598 151.297Z" fill="#CCCCCC"/>
<path d="M507.41 103.866H490.971V175.393H507.41V103.866Z" fill="#E6E6E6"/>
<path d="M507.41 115.16H490.971V123.442H507.41V115.16Z" fill="#CCCCCC"/>
<path d="M507.41 151.3H490.971V159.582H507.41V151.3Z" fill="#CCCCCC"/>
<path d="M432.441 103.449H373.469C372.56 103.451 371.688 103.849 371.046 104.555C370.403 105.261 370.041 106.219 370.04 107.218V172.042C370.041 172.41 370.09 172.777 370.185 173.131C370.398 173.905 370.833 174.584 371.424 175.066C372.016 175.549 372.732 175.81 373.469 175.811H432.441C433.178 175.81 433.894 175.549 434.486 175.066C435.077 174.584 435.511 173.905 435.725 173.131C435.82 172.777 435.869 172.41 435.87 172.042V107.218C435.869 106.219 435.507 105.261 434.864 104.555C434.221 103.849 433.35 103.451 432.441 103.449Z" fill="#E6E6E6"/>
<path d="M428.251 108.056H377.659C376.75 108.057 375.879 108.455 375.236 109.161C374.594 109.868 374.232 110.826 374.23 111.825V167.436C374.232 168.435 374.594 169.392 375.236 170.099C375.879 170.805 376.75 171.203 377.659 171.204H428.251C429.16 171.203 430.031 170.805 430.674 170.099C431.316 169.392 431.678 168.435 431.679 167.436V111.825C431.678 110.826 431.316 109.868 430.674 109.161C430.031 108.455 429.16 108.057 428.251 108.056Z" fill="white"/>
<path d="M419.428 117.754H386.482C385.573 117.756 384.702 118.153 384.059 118.86C383.417 119.566 383.055 120.524 383.053 121.523V157.737C383.055 158.736 383.417 159.694 384.059 160.401C384.702 161.107 385.573 161.505 386.482 161.506H419.428C420.336 161.501 421.205 161.102 421.847 160.396C422.489 159.691 422.852 158.735 422.856 157.737V121.523C422.855 120.524 422.493 119.566 421.851 118.86C421.208 118.153 420.337 117.756 419.428 117.754Z" fill="#CCCCCC"/>
<path d="M417.397 151.35L410.438 138.101C410.304 137.846 410.112 137.635 409.88 137.488C409.649 137.341 409.386 137.264 409.118 137.264C408.851 137.264 408.588 137.341 408.356 137.488C408.125 137.635 407.932 137.846 407.798 138.101L402.717 147.775L396.053 135.089C395.92 134.835 395.727 134.623 395.496 134.476C395.264 134.329 395.001 134.252 394.734 134.252C394.466 134.252 394.204 134.329 393.972 134.476C393.74 134.623 393.548 134.835 393.414 135.089L386.455 148.338L378.177 164.099H394.143L392.562 167.111H425.675L417.397 151.35Z" fill="white"/>
<path d="M414.941 130.971C417.589 130.971 419.735 128.611 419.735 125.7C419.735 122.79 417.589 120.43 414.941 120.43C412.292 120.43 410.146 122.79 410.146 125.7C410.146 128.611 412.292 130.971 414.941 130.971Z" fill="white"/>
<path d="M544.939 231.656C544.886 228.406 544.769 225.174 544.589 221.958C544.513 220.417 544.421 218.884 544.307 217.351H512.138C511.229 217.353 510.358 217.75 509.715 218.457C509.073 219.163 508.711 220.121 508.71 221.12V285.944C508.708 286.24 508.741 286.536 508.809 286.823C508.989 287.645 509.415 288.377 510.019 288.901C510.623 289.425 511.369 289.711 512.138 289.712H541.792C541.945 288.758 542.09 287.786 542.219 286.823C542.303 286.253 542.387 285.676 542.463 285.106C542.646 283.741 542.821 282.376 542.981 281.011C543.21 279.151 543.416 277.284 543.598 275.408C544.269 268.682 544.7 261.885 544.894 255.014V255.006C544.962 252.418 544.998 249.819 545 247.209V237.158C545 235.316 544.985 233.482 544.939 231.656Z" fill="#E6E6E6"/>
<path d="M544.939 231.656C544.886 228.406 544.769 225.174 544.589 221.958H516.329C515.42 221.959 514.549 222.357 513.906 223.063C513.263 223.77 512.902 224.727 512.9 225.726V281.337C512.902 282.336 513.263 283.294 513.906 284C514.549 284.707 515.42 285.104 516.329 285.106H542.463C542.646 283.741 542.821 282.376 542.981 281.011C543.21 279.151 543.416 277.284 543.598 275.408C544.269 268.682 544.7 261.885 544.894 255.014V255.006C544.962 252.418 544.998 249.819 545 247.209V237.158C545 235.316 544.985 233.482 544.939 231.656Z" fill="white"/>
<path d="M544.939 231.656H525.152C524.243 231.658 523.372 232.055 522.729 232.762C522.086 233.468 521.725 234.426 521.723 235.425V271.639C521.725 272.638 522.086 273.596 522.729 274.302C523.372 275.009 524.243 275.406 525.152 275.408H543.598C544.269 268.682 544.7 261.885 544.894 255.014V255.006C544.962 252.418 544.998 249.819 545 247.209V237.158C545 235.316 544.985 233.482 544.939 231.656Z" fill="#CCCCCC"/>
<path d="M544.894 255.014C544.703 261.882 544.271 268.68 543.598 275.408C543.416 277.284 543.21 279.151 542.981 281.01H531.232L532.817 278.004H516.847L521.723 268.716L525.122 262.242L532.086 248.992C532.218 248.737 532.41 248.524 532.642 248.376C532.873 248.229 533.136 248.151 533.404 248.151C533.672 248.151 533.934 248.229 534.166 248.376C534.397 248.524 534.589 248.737 534.722 248.992L541.389 261.681L544.894 255.014Z" fill="white"/>
<path d="M487.163 67.7295H349.186V59.4465H480.321C482.652 62.1517 484.933 64.9127 487.163 67.7295Z" fill="#E6E6E6"/>
<path d="M422.476 10.2847C428.098 13.685 433.579 17.3281 438.918 21.2142V61.6996H422.476V10.2847Z" fill="#E6E6E6"/>
<path d="M438.914 37.6091H422.475V45.8912H438.914V37.6091Z" fill="#CCCCCC"/>
<path d="M464.259 42.487V61.6996H447.817V28.0232C451.65 31.0969 455.396 34.2934 459.055 37.6127C460.808 39.204 462.542 40.8288 464.259 42.487Z" fill="#E6E6E6"/>
<path d="M464.259 42.4871V45.8874H447.817V37.6128H459.055C460.808 39.2041 462.542 40.8288 464.259 42.4871Z" fill="#CCCCCC"/>
<path d="M405.69 1.05527C410.041 3.20763 414.318 5.50242 418.521 7.93963L415.138 15.4437L403.9 40.41L400.555 47.8303L395.32 59.4467L394.17 62.0011L389.484 59.4467L379.442 53.9777L385.819 39.807H385.827L389.164 32.3866L400.41 7.42036L403.717 0.0837564L403.755 0L405.69 1.05527Z" fill="#E6E6E6"/>
<path d="M418.483 8.015L415.138 15.4437L400.41 7.42036L403.717 0.0837513L403.755 0L405.69 1.05527L418.483 8.015Z" fill="#CCCCCC"/>
<path d="M389.164 32.3888L385.821 39.811L400.554 47.8285L403.897 40.4063L389.164 32.3888Z" fill="#CCCCCC"/>
<path d="M542.219 286.823C542.09 287.786 541.945 288.758 541.792 289.712C541.526 291.521 541.236 293.314 540.924 295.106H349.186V286.823H542.219Z" fill="#E6E6E6"/>
<path d="M438.914 217.556H422.475V289.083H438.914V217.556Z" fill="#E6E6E6"/>
<path d="M438.914 228.85H422.475V237.132H438.914V228.85Z" fill="#CCCCCC"/>
<path d="M438.914 264.99H422.475V273.272H438.914V264.99Z" fill="#CCCCCC"/>
<path d="M464.258 217.556H447.819V289.083H464.258V217.556Z" fill="#E6E6E6"/>
<path d="M464.258 228.85H447.819V237.132H464.258V228.85Z" fill="#CCCCCC"/>
<path d="M464.258 264.99H447.819V273.272H464.258V264.99Z" fill="#CCCCCC"/>
<path d="M408.311 217.26L379.439 281.361L394.172 289.379L423.043 225.278L408.311 217.26Z" fill="#E6E6E6"/>
<path d="M403.752 227.382L400.409 234.804L415.141 242.821L418.484 235.399L403.752 227.382Z" fill="#CCCCCC"/>
<path d="M389.164 259.769L385.821 267.192L400.554 275.209L403.897 267.787L389.164 259.769Z" fill="#CCCCCC"/>
<path d="M223.089 318.742C223.776 319.177 224.431 319.67 225.048 320.218L292.881 297.014L296.706 278.515L322.859 281.211L318.983 314.683C318.67 317.388 317.567 319.907 315.84 321.864C314.113 323.82 311.856 325.108 309.407 325.535L229.578 339.427C228.413 342.53 226.417 345.17 223.854 346.995C221.291 348.82 218.284 349.744 215.231 349.645C212.179 349.545 209.227 348.427 206.767 346.438C204.307 344.449 202.457 341.684 201.462 338.511C200.466 335.338 200.373 331.906 201.195 328.674C202.017 325.441 203.715 322.56 206.063 320.414C208.411 318.268 211.298 316.959 214.339 316.66C217.38 316.361 220.433 317.088 223.089 318.742Z" fill="#FFB8B8"/>
<path d="M334.946 292.309L334.496 283.867V283.858L334.374 281.547L333.049 256.689C333.445 251.507 331.958 246.363 328.912 242.384C325.866 238.405 321.51 235.915 316.797 235.458C315.441 235.325 314.076 235.364 312.728 235.576C308.725 236.198 305.03 238.288 302.243 241.508C299.457 244.728 297.741 248.888 297.375 253.314L294.625 265.894L289.817 287.895C289.476 289.434 289.618 291.055 290.218 292.495C290.817 293.936 291.841 295.112 293.124 295.835C293.864 296.263 294.675 296.525 295.509 296.605L303.524 297.392L311.242 298.146L320.149 299.017L320.789 299.076L322.435 299.243L327.944 299.779H327.959C328.879 299.861 329.804 299.727 330.674 299.386C331.543 299.045 332.337 298.506 333.003 297.803C333.488 297.283 333.896 296.684 334.214 296.027C334.77 294.887 335.023 293.599 334.946 292.309V292.309Z" fill="#EAC435"/>
<path d="M409.382 189.942C409.382 218.606 385.27 214.27 355.526 214.27C325.782 214.27 301.669 218.606 301.669 189.942C301.669 161.278 313.447 110.468 355.526 110.468C399.054 110.468 409.382 161.278 409.382 189.942Z" fill="#2F2E41"/>
<path d="M380.971 202.555C395.124 186.998 395.124 161.775 380.971 146.219C366.819 130.662 343.873 130.662 329.72 146.219C315.567 161.775 315.567 186.998 329.72 202.555C343.873 218.112 366.819 218.112 380.971 202.555Z" fill="#FFB8B8"/>
<path d="M406.361 230.969C405.663 230.23 404.922 229.542 404.144 228.909C399.216 224.817 393.025 223.016 386.901 223.892L320.119 233.18C314.001 234.015 308.42 237.436 304.559 242.717C300.697 247.998 298.858 254.725 299.432 261.471C299.623 263.816 299.837 266.287 300.072 268.858C300.377 272.083 300.72 275.466 301.116 278.967C301.771 284.855 302.572 291.069 303.524 297.392C304.354 302.836 305.299 308.355 306.381 313.808C306.694 315.382 307.019 316.951 307.356 318.514C307.356 318.519 307.356 318.524 307.358 318.528C307.359 318.532 307.361 318.536 307.364 318.539C307.402 318.732 307.44 318.925 307.486 319.109C307.484 319.124 307.487 319.138 307.494 319.151C307.966 321.328 308.461 323.481 308.98 325.608C309.178 326.395 309.368 327.174 309.566 327.945C310.099 330.039 310.663 332.09 311.242 334.109C315.593 349.125 321.345 361.914 328.942 368.715C329.041 368.815 329.14 368.899 329.246 368.991L329.552 369.251L329.993 369.1L331.867 368.489L333.468 367.953L354.314 361.06L359.502 359.343L376.174 353.824H376.181L391.427 348.782L393.286 348.162L406.384 343.832L406.803 338.455L407.367 331.32L407.702 327.032L410.353 293.213L411.9 273.481L413.576 252.058C413.888 248.173 413.401 244.261 412.152 240.611C410.903 236.961 408.924 233.666 406.361 230.969Z" fill="#2F2E41"/>
<path d="M443.703 394.611C443.527 394.05 443.36 393.489 443.184 392.936C435.352 367.811 423.801 348.807 406.803 338.456C406.795 338.456 406.795 338.447 406.787 338.447L406.498 338.271L391.686 343.908L389.858 344.603L387.953 345.332L387.93 345.34L374.063 350.616L374.04 350.625L363.16 354.762H363.152L353.087 358.59H353.08L350.74 359.486L333.148 366.177L331.105 366.956L329.277 367.651L328.995 367.76L328.942 368.715L327.685 392.936L327.601 394.611L326.031 424.837L273.908 506H309.566C321.514 506.003 333.445 505.004 345.255 503.01L378.71 463.379C378.991 463.06 379.345 462.831 379.735 462.717C380.125 462.603 380.536 462.609 380.924 462.733C381.311 462.857 381.66 463.095 381.934 463.422C382.207 463.748 382.394 464.15 382.475 464.585L387.389 491.386C411.6 481.975 434.248 468.277 454.438 450.833C452.091 430.021 448.663 411.051 443.703 394.611Z" fill="#2F2E41"/>
<path d="M313.473 170.479H327.807L334.131 151.016L335.395 170.479H342.246L345.935 159.125L346.673 170.479H397.578C397.578 164.941 396.586 159.457 394.658 154.341C392.73 149.225 389.904 144.576 386.342 140.66C382.779 136.744 378.55 133.638 373.896 131.519C369.241 129.4 364.253 128.309 359.215 128.309H351.837C341.662 128.309 331.904 132.752 324.71 140.66C317.515 148.569 313.473 159.295 313.473 170.479Z" fill="#2F2E41"/>
<path d="M225.308 381.535C222.968 382.616 220.44 383.119 217.904 383.01C215.368 382.901 212.884 382.182 210.628 380.904C208.371 379.626 206.398 377.819 204.845 375.612C203.293 373.404 202.2 370.85 201.643 368.128L140.334 360.495L160.886 333.443L215.954 344.839C220.177 344.113 224.494 345.116 228.089 347.656C231.684 350.196 234.306 354.097 235.459 358.62C236.612 363.144 236.216 367.975 234.345 372.198C232.474 376.421 229.258 379.743 225.308 381.535L225.308 381.535Z" fill="#A0616A"/>
<path d="M192.253 331.462L166.34 326.37L164.458 326.002C162.954 325.707 161.524 325.065 160.262 324.119C159 323.173 157.934 321.944 157.134 320.513C156.335 319.082 155.82 317.482 155.623 315.817C155.427 314.151 155.553 312.459 155.993 310.851L168.717 264.378L169.098 262.996C170.687 257.089 170.404 250.764 168.296 245.057C166.188 239.35 162.379 234.598 157.494 231.581C154.187 229.562 150.501 228.409 146.723 228.212C142.945 228.014 139.176 228.777 135.71 230.442C132.244 232.106 129.174 234.627 126.739 237.808C124.303 240.989 122.568 244.745 121.668 248.783L105.44 321.588L104.838 324.285C103.704 329.365 103.581 334.654 104.475 339.791C105.37 344.929 107.262 349.794 110.022 354.054C112.783 358.315 116.346 361.871 120.47 364.481C124.595 367.09 129.182 368.692 133.92 369.176C133.973 369.184 134.019 369.184 134.073 369.192L143.787 370.139L156.389 371.37L172.237 372.919L187.026 374.368C188.963 374.561 190.896 373.947 192.44 372.647C193.984 371.347 195.027 369.456 195.362 367.35C195.384 367.233 195.4 367.115 195.415 366.998L198.554 341.236L198.585 341.002C198.855 338.82 198.347 336.609 197.167 334.83C195.986 333.052 194.225 331.845 192.253 331.462Z" fill="#CCCCCC"/>
<path d="M152.33 136.265C141.985 158.62 133.832 181.678 111.015 181.678C100.058 181.678 89.5491 176.893 81.8011 168.377C74.0531 159.86 69.7004 148.309 69.7004 136.265C69.7004 111.183 88.1991 91.1651 111.015 90.8511C134.204 90.532 171.583 94.6539 152.33 136.265Z" fill="#2F2E41"/>
<path d="M178.279 428.723L177.342 418.438L176.641 418.48L53.4457 425.004L53.7657 435.414L54.307 453.245C73.3696 469.207 94.5386 481.874 117.082 490.807L117.882 483.99C117.952 483.435 118.194 482.923 118.568 482.541C118.942 482.159 119.424 481.932 119.933 481.896C120.443 481.861 120.947 482.02 121.362 482.346C121.777 482.673 122.076 483.147 122.209 483.689L124.64 493.647C144.277 500.608 164.67 504.666 185.281 505.715L178.279 428.723Z" fill="#2F2E41"/>
<path d="M138.674 170.895C152.827 155.338 152.827 130.116 138.674 114.559C124.521 99.0019 101.575 99.0019 87.4224 114.559C73.2696 130.116 73.2696 155.338 87.4224 170.895C101.575 186.452 124.521 186.452 138.674 170.895Z" fill="#A0616A"/>
<path d="M185.358 419.133L178.173 394.611L178.051 394.192L177.685 392.936L175.635 385.951C174.972 383.681 174.34 381.403 173.753 379.117C173.212 377.056 172.707 374.991 172.237 372.919C171.567 370.038 170.957 367.146 170.409 364.243C168.549 354.486 167.309 344.599 166.698 334.653C166.53 331.898 166.411 329.137 166.34 326.37C165.893 309.413 167.282 292.457 170.477 275.86C173.258 261.507 171.773 246.553 166.239 233.198C160.706 219.844 151.417 208.796 139.741 201.681C132.08 197.027 123.599 194.231 114.872 193.482C114.27 193.432 113.668 193.39 113.059 193.348C103.84 192.708 94.6072 194.352 86.0433 198.158C77.4793 201.965 69.8025 207.837 63.5795 215.341C60.2464 219.332 57.3515 223.74 54.9543 228.473C48.3031 241.646 45.8062 256.868 47.8533 271.764L56.4171 334.971L54.4669 361.579L52.1659 392.936L52.0439 394.611L49.5903 428.044C49.4741 429.603 49.8174 431.161 50.5694 432.488C51.3213 433.816 52.442 434.842 53.7657 435.414C54.5409 435.756 55.3689 435.929 56.204 435.925C56.326 435.925 56.4402 435.925 56.5622 435.917L178.279 428.723L179.392 428.656C180.407 428.598 181.397 428.284 182.284 427.738C183.171 427.193 183.933 426.431 184.509 425.51C185.086 424.59 185.462 423.536 185.609 422.43C185.757 421.325 185.67 420.197 185.358 419.133L185.358 419.133Z" fill="#CCCCCC"/>
<path d="M151.505 120.214C143.223 126.488 133.394 129.827 123.336 129.783C126.924 132.517 131.008 134.364 135.308 135.197C121.935 138.35 108.115 138.435 94.7105 135.447C91.731 134.922 88.8561 133.837 86.2118 132.239C83.6381 130.522 81.4852 127.787 80.966 124.527C80.0753 118.934 84.0402 113.852 88.1607 110.428C94.4693 105.264 101.743 101.707 109.456 100.013C117.169 98.3186 125.128 98.5301 132.758 100.632C137.739 102.047 142.73 104.439 145.966 108.837C149.201 113.234 150.16 120.014 147.077 124.542L151.505 120.214Z" fill="#2F2E41"/>
<path d="M153.358 373.248C151.039 374.384 148.523 374.948 145.985 374.899C143.447 374.851 140.949 374.191 138.669 372.967C136.388 371.742 134.379 369.983 132.783 367.813C131.188 365.643 130.045 363.115 129.434 360.407L67.9897 354.235L88.0034 326.701L143.284 336.783C147.491 335.957 151.827 336.856 155.471 339.31C159.115 341.764 161.814 345.602 163.056 350.097C164.297 354.592 163.996 359.431 162.209 363.698C160.421 367.965 157.272 371.363 153.358 373.248L153.358 373.248Z" fill="#A0616A"/>
<path d="M119.329 323.975L105.44 321.588L91.4277 319.176C89.9186 318.917 88.4765 318.31 87.1961 317.394C85.9157 316.479 84.8259 315.276 83.9984 313.865C83.1709 312.454 82.6243 310.867 82.3946 309.207C82.1649 307.547 82.2572 305.853 82.6656 304.235L94.8259 256.078C96.2974 250.134 95.8897 243.818 93.6694 238.163C91.4492 232.507 87.548 227.848 82.6046 224.947C79.2651 222.989 75.5566 221.913 71.7729 221.804C67.9892 221.695 64.2344 222.556 60.8061 224.319C57.3674 226.055 54.3422 228.644 51.9688 231.884C49.5955 235.123 47.9389 238.924 47.1295 242.987L31.7921 318.874C30.7588 323.993 30.7439 329.297 31.7483 334.423C32.7526 339.549 34.7525 344.376 37.6112 348.574C40.4698 352.771 44.1197 356.24 48.3111 358.744C52.5025 361.247 57.1364 362.726 61.8958 363.078L114.948 366.99C116.888 367.135 118.807 366.475 120.325 365.139C121.843 363.804 122.85 361.891 123.146 359.779C123.17 359.661 123.177 359.544 123.192 359.427L125.821 333.598L125.844 333.363C126.07 331.177 125.519 328.979 124.305 327.229C123.09 325.479 121.308 324.313 119.329 323.975Z" fill="#CCCCCC"/>
<path d="M354.365 283.942L351.185 285.848L312.014 309.342L308.834 311.249C307.291 312.176 306.146 313.739 305.65 315.594C305.154 317.448 305.348 319.443 306.188 321.141L335.359 379.907C336.203 381.603 337.624 382.862 339.311 383.407C340.999 383.952 342.814 383.74 344.358 382.816L344.367 382.811L389.881 355.513L389.889 355.509C391.432 354.581 392.577 353.018 393.073 351.164C393.569 349.309 393.375 347.314 392.535 345.616L363.364 286.85C362.52 285.154 361.099 283.895 359.412 283.35C357.725 282.805 355.91 283.018 354.365 283.942Z" fill="#E6E6E6"/>
<path d="M355.279 285.784L351.514 288.043L313.515 310.833L309.749 313.091C308.65 313.752 307.835 314.865 307.482 316.185C307.128 317.506 307.266 318.927 307.865 320.136L337.035 378.902C337.636 380.11 338.648 381.006 339.85 381.394C341.051 381.783 342.344 381.631 343.444 380.973L343.452 380.968L388.966 353.671L388.974 353.666C390.073 353.005 390.888 351.893 391.242 350.572C391.595 349.251 391.457 347.831 390.859 346.622L361.688 287.855C361.087 286.647 360.075 285.751 358.873 285.363C357.672 284.975 356.379 285.126 355.279 285.784Z" fill="white"/>
<path d="M356.348 302.376C356.207 302.094 355.97 301.884 355.689 301.793C355.407 301.702 355.105 301.737 354.847 301.89L353.331 302.803L337.872 312.074C337.616 312.229 337.426 312.49 337.345 312.798C337.263 313.107 337.295 313.438 337.435 313.72C337.575 314.003 337.811 314.212 338.091 314.304C338.371 314.396 338.673 314.362 338.93 314.21L355.906 304.026C356.163 303.87 356.353 303.609 356.436 303.3C356.519 302.992 356.487 302.659 356.348 302.376Z" fill="#E6E6E6"/>
<path d="M362.131 303.573C362.062 303.433 361.969 303.31 361.856 303.21C361.744 303.111 361.614 303.036 361.475 302.992C361.336 302.948 361.191 302.934 361.047 302.952C360.903 302.97 360.764 303.019 360.638 303.096L339.662 315.675C339.535 315.752 339.423 315.855 339.332 315.979C339.241 316.103 339.173 316.246 339.133 316.398C339.092 316.551 339.079 316.711 339.095 316.87C339.11 317.028 339.154 317.181 339.224 317.321C339.293 317.461 339.387 317.584 339.5 317.684C339.613 317.784 339.743 317.858 339.882 317.903C340.021 317.947 340.166 317.962 340.31 317.944C340.454 317.927 340.594 317.879 340.721 317.803L341.697 317.216L347.799 313.556H347.807L361.689 305.223C361.818 305.148 361.931 305.045 362.023 304.921C362.115 304.797 362.184 304.654 362.225 304.5C362.266 304.346 362.279 304.185 362.263 304.026C362.247 303.867 362.202 303.713 362.131 303.573Z" fill="#E6E6E6"/>
<path d="M339.335 323.623L332.675 310.198C332.606 310.063 332.491 309.964 332.356 309.921C332.22 309.879 332.075 309.897 331.952 309.972L328.721 311.906L327.045 312.911L318.046 318.305L316.302 319.352C316.179 319.428 316.089 319.554 316.05 319.703C316.012 319.852 316.028 320.012 316.096 320.148L316.523 321.01L322.755 333.573C322.823 333.707 322.936 333.806 323.07 333.848C323.205 333.891 323.349 333.873 323.471 333.799L334.214 327.358L335.891 326.354L339.121 324.419C339.183 324.382 339.237 324.333 339.282 324.273C339.326 324.213 339.359 324.144 339.379 324.07C339.399 323.996 339.405 323.918 339.397 323.842C339.39 323.765 339.368 323.691 339.335 323.623Z" fill="#E6E6E6"/>
<path d="M364.767 319.411C364.628 319.129 364.392 318.919 364.112 318.828C363.832 318.737 363.531 318.772 363.274 318.925L340.249 332.735C340.045 332.858 339.882 333.047 339.782 333.277C339.683 333.507 339.651 333.766 339.692 334.017C339.709 334.147 339.747 334.272 339.807 334.385C339.865 334.501 339.94 334.605 340.028 334.695L340.035 334.704C340.206 334.872 340.42 334.979 340.647 335.009C340.875 335.039 341.106 334.99 341.308 334.871L364.333 321.06C364.46 320.984 364.573 320.88 364.663 320.755C364.754 320.631 364.822 320.488 364.862 320.335C364.902 320.181 364.915 320.021 364.898 319.862C364.882 319.704 364.838 319.55 364.767 319.411Z" fill="#E6E6E6"/>
<path d="M370.558 320.608C370.488 320.468 370.394 320.345 370.28 320.246C370.167 320.146 370.037 320.072 369.897 320.028C369.758 319.983 369.612 319.97 369.468 319.987C369.324 320.005 369.184 320.054 369.057 320.131L342.032 336.337C341.828 336.455 341.665 336.641 341.565 336.869C341.465 337.096 341.433 337.353 341.476 337.601V337.61C341.492 337.739 341.53 337.865 341.59 337.978C341.648 338.098 341.726 338.206 341.818 338.296C341.987 338.469 342.201 338.577 342.43 338.608C342.658 338.638 342.89 338.587 343.091 338.464L370.116 322.258C370.373 322.103 370.564 321.842 370.647 321.533C370.729 321.224 370.698 320.892 370.558 320.608Z" fill="#E6E6E6"/>
<path d="M332.537 346.178C335.125 346.178 337.223 343.872 337.223 341.027C337.223 338.182 335.125 335.876 332.537 335.876C329.949 335.876 327.85 338.182 327.85 341.027C327.85 343.872 329.949 346.178 332.537 346.178Z" fill="#E6E6E6"/>
<path d="M368.079 261.329L364.9 263.236L325.728 286.729L322.549 288.636C321.006 289.564 319.861 291.126 319.365 292.981C318.869 294.835 319.063 296.83 319.903 298.528L349.073 357.295C349.917 358.99 351.339 360.249 353.026 360.794C354.713 361.339 356.528 361.127 358.073 360.203L358.081 360.198L403.595 332.901L403.604 332.896C405.146 331.968 406.291 330.405 406.787 328.551C407.283 326.696 407.09 324.701 406.249 323.003L377.079 264.237C376.235 262.541 374.813 261.282 373.126 260.737C371.439 260.192 369.624 260.405 368.079 261.329Z" fill="#CCCCCC"/>
<path d="M368.994 263.171L365.228 265.43L327.229 288.22L323.463 290.478C322.365 291.139 321.549 292.252 321.196 293.572C320.843 294.893 320.981 296.314 321.579 297.523L350.75 356.289C351.351 357.497 352.363 358.393 353.564 358.782C354.766 359.17 356.058 359.018 357.158 358.36L357.167 358.355L402.681 331.058L402.689 331.053C403.788 330.393 404.603 329.28 404.956 327.959C405.309 326.638 405.172 325.218 404.573 324.009L375.403 265.242C374.802 264.035 373.789 263.138 372.588 262.75C371.387 262.362 370.094 262.513 368.994 263.171Z" fill="white"/>
<path d="M370.063 279.763C369.921 279.481 369.684 279.271 369.403 279.18C369.122 279.089 368.82 279.124 368.562 279.277L360.745 283.967L358.565 285.273L351.586 289.461C351.33 289.616 351.141 289.877 351.059 290.185C350.977 290.494 351.01 290.825 351.15 291.107C351.29 291.39 351.525 291.599 351.806 291.691C352.086 291.783 352.388 291.749 352.645 291.597L360.874 286.664L362.596 285.625L369.621 281.413C369.877 281.257 370.068 280.996 370.151 280.687C370.233 280.379 370.202 280.046 370.063 279.763Z" fill="#CCCCCC"/>
<path d="M375.846 280.96C375.777 280.821 375.683 280.697 375.571 280.598C375.458 280.498 375.329 280.424 375.19 280.379C375.051 280.335 374.905 280.321 374.762 280.339C374.618 280.357 374.479 280.406 374.352 280.483L363.449 287.024L361.773 288.029L353.376 293.063C353.249 293.139 353.137 293.242 353.046 293.366C352.956 293.49 352.888 293.633 352.847 293.786C352.807 293.939 352.794 294.099 352.809 294.257C352.825 294.415 352.869 294.569 352.938 294.708C353.008 294.848 353.102 294.971 353.215 295.071C353.328 295.171 353.457 295.245 353.596 295.29C353.735 295.335 353.881 295.349 354.025 295.332C354.169 295.314 354.309 295.266 354.436 295.19L362.832 290.156L364.508 289.151L375.404 282.61C375.532 282.535 375.646 282.432 375.738 282.308C375.83 282.184 375.898 282.041 375.939 281.887C375.981 281.734 375.994 281.573 375.977 281.413C375.961 281.254 375.917 281.1 375.846 280.96Z" fill="#CCCCCC"/>
<path d="M353.049 301.01L347.738 290.307L346.824 288.464L346.39 287.585C346.321 287.45 346.206 287.351 346.07 287.309C345.935 287.266 345.79 287.284 345.666 287.359L334.885 293.825L330.016 296.739C329.894 296.815 329.803 296.942 329.765 297.09C329.726 297.239 329.743 297.399 329.81 297.535L330.245 298.406L330.717 299.369L331.159 300.248V300.257L336.469 310.96C336.537 311.094 336.651 311.193 336.785 311.236C336.919 311.278 337.063 311.26 337.186 311.186L352.836 301.806C352.897 301.77 352.952 301.72 352.996 301.66C353.04 301.6 353.073 301.531 353.093 301.457C353.113 301.383 353.12 301.306 353.112 301.229C353.104 301.152 353.083 301.078 353.049 301.01Z" fill="#EAC435"/>
<path d="M378.482 296.798C378.342 296.516 378.107 296.307 377.827 296.216C377.547 296.125 377.245 296.159 376.989 296.312L370.108 300.441L368.432 301.446L361.788 305.424L353.963 310.123C353.836 310.199 353.723 310.302 353.632 310.427C353.54 310.551 353.472 310.694 353.431 310.847C353.39 311 353.377 311.161 353.393 311.32C353.408 311.478 353.452 311.632 353.521 311.773C353.591 311.913 353.685 312.037 353.798 312.137C353.911 312.237 354.041 312.312 354.18 312.357C354.32 312.402 354.466 312.417 354.61 312.4C354.755 312.383 354.895 312.335 355.022 312.258L369.491 303.582L371.167 302.577L378.048 298.448C378.175 298.371 378.287 298.267 378.378 298.143C378.469 298.018 378.536 297.875 378.577 297.722C378.617 297.569 378.629 297.408 378.613 297.249C378.597 297.091 378.552 296.937 378.482 296.798Z" fill="#CCCCCC"/>
<path d="M384.273 297.995C384.203 297.856 384.108 297.732 383.995 297.633C383.882 297.533 383.752 297.459 383.612 297.415C383.473 297.37 383.327 297.357 383.182 297.374C383.038 297.392 382.899 297.441 382.772 297.518L371.899 304.042L370.223 305.047L355.746 313.724C355.619 313.8 355.506 313.903 355.414 314.027C355.323 314.151 355.255 314.294 355.213 314.447C355.172 314.6 355.159 314.761 355.175 314.919C355.19 315.078 355.234 315.232 355.304 315.372C355.373 315.512 355.468 315.636 355.581 315.736C355.694 315.836 355.824 315.91 355.964 315.955C356.103 315.999 356.25 316.013 356.394 315.995C356.538 315.977 356.678 315.928 356.805 315.851L371.274 307.175L372.951 306.169L383.831 299.645C384.088 299.49 384.278 299.23 384.361 298.921C384.444 298.611 384.412 298.279 384.273 297.995Z" fill="#CCCCCC"/>
<path d="M346.251 323.566C348.839 323.566 350.937 321.259 350.937 318.414C350.937 315.57 348.839 313.263 346.251 313.263C343.663 313.263 341.565 315.57 341.565 318.414C341.565 321.259 343.663 323.566 346.251 323.566Z" fill="#CCCCCC"/>
<path d="M349.399 347.374C350.188 347.459 350.969 347.613 351.736 347.833L404.88 296.011L401.444 277.42L426.291 268.052L435.284 300.314C436.011 302.92 435.949 305.715 435.107 308.28C434.265 310.844 432.69 313.039 430.617 314.535L363.054 363.294C363.154 366.649 362.322 369.957 360.669 372.78C359.016 375.602 356.621 377.804 353.802 379.094C350.982 380.383 347.873 380.699 344.887 379.998C341.9 379.298 339.179 377.614 337.084 375.172C334.989 372.73 333.621 369.644 333.16 366.326C332.7 363.008 333.169 359.614 334.506 356.597C335.843 353.579 337.984 351.08 340.644 349.433C343.305 347.785 346.358 347.067 349.399 347.374Z" fill="#FFB8B8"/>
<path d="M441.463 272.694L426.407 241.087C424.857 236.279 421.669 232.322 417.515 230.05C413.361 227.778 408.567 227.369 404.144 228.909C403.976 228.959 403.816 229.018 403.648 229.085C399.166 230.807 395.489 234.414 393.423 239.113C391.357 243.813 391.072 249.221 392.631 254.152L398.673 289.084C398.846 290.084 399.213 291.031 399.75 291.861C400.286 292.691 400.979 293.383 401.782 293.892C402.659 294.456 403.647 294.777 404.662 294.83C405.497 294.888 406.334 294.76 407.123 294.453L410.353 293.213L431.093 285.274L437.874 282.677C438.749 282.341 439.547 281.802 440.215 281.096C440.883 280.391 441.405 279.535 441.745 278.588C442.086 277.641 442.237 276.624 442.188 275.607C442.139 274.59 441.892 273.597 441.463 272.694Z" fill="#EAC435"/>
<path d="M498.297 394.611H0.761922C0.559848 394.611 0.36605 394.523 0.223161 394.366C0.0802732 394.208 0 393.995 0 393.773C0 393.551 0.0802732 393.338 0.223161 393.181C0.36605 393.024 0.559848 392.936 0.761922 392.936H498.297C498.499 392.936 498.693 393.024 498.836 393.181C498.979 393.338 499.059 393.551 499.059 393.773C499.059 393.995 498.979 394.208 498.836 394.366C498.693 394.523 498.499 394.611 498.297 394.611Z" fill="#424885"/>
<path d="M86.4752 379.117V379.536C86.4778 382.375 87.2301 385.153 88.6408 387.531C90.0514 389.91 92.0598 391.787 94.4222 392.936C96.1167 393.768 97.9527 394.197 99.8088 394.192H222.859V379.117H86.4752Z" fill="#424885"/>
<path d="M308.774 279.763C306.821 275.332 303.814 271.564 300.072 268.858C298.376 267.624 296.546 266.628 294.625 265.894C292.007 264.889 289.253 264.376 286.48 264.378H168.382C161.817 264.386 155.523 267.256 150.881 272.359C146.238 277.462 143.627 284.38 143.619 291.597V366.973C143.617 368.031 143.673 369.088 143.787 370.139C143.955 371.71 144.245 373.262 144.656 374.779C145.063 376.272 145.588 377.724 146.225 379.117C148.276 383.647 151.437 387.458 155.351 390.122C159.266 392.785 163.778 394.195 168.382 394.192H286.48C289.732 394.194 292.953 393.49 295.958 392.123C298.962 390.756 301.693 388.751 303.992 386.223C306.292 383.695 308.116 380.694 309.36 377.391C310.604 374.088 311.244 370.548 311.242 366.973V291.597C311.248 287.497 310.404 283.45 308.774 279.763Z" fill="#424885"/>
<path d="M233.907 335.985C237.274 335.985 240.003 332.985 240.003 329.285C240.003 325.584 237.274 322.585 233.907 322.585C230.541 322.585 227.812 325.584 227.812 329.285C227.812 332.985 230.541 335.985 233.907 335.985Z" fill="white"/>
</g>
<defs>
<clipPath id="clip0">
<rect width="545" height="506" fill="white"/>
</clipPath>
</defs>
</svg>
