<svg width="30" height="30" viewBox="0 0 30 30" fill="none" xmlns="http://www.w3.org/2000/svg">
<path d="M15.7901 3.03033C14.2163 2.91055 12.6362 3.14646 11.1573 3.72202C9.67838 4.29758 8.33536 5.19929 7.21951 6.36585C6.10367 7.53242 5.24116 8.93649 4.69063 10.4826C4.14009 12.0287 3.91444 13.6806 4.02901 15.3261C4.42508 21.4107 9.50801 26 15.3391 26H19.3988C20.0039 26 20.499 25.4824 20.499 24.8498C20.499 24.2172 20.0039 23.6996 19.3988 23.6996H15.3611C11.2573 23.6996 7.49464 20.9161 6.47145 16.7638C4.83216 10.0926 10.7732 3.86998 17.1544 5.59529C21.1371 6.65349 23.7996 10.5872 23.7996 14.8775V16.1427C23.7996 17.0514 23.0185 17.9485 22.1493 17.9485C21.2801 17.9485 20.499 17.0514 20.499 16.1427V14.7049C20.499 11.8179 18.5406 9.21845 15.8122 8.81588C14.944 8.68093 14.0577 8.76473 13.2268 9.06032C12.3959 9.3559 11.6446 9.85471 11.0355 10.5152C10.4263 11.1757 9.97682 11.9788 9.72453 12.8576C9.47224 13.7364 9.42441 14.6656 9.58502 15.5676C9.77798 16.6545 10.2667 17.6602 10.9927 18.464C11.7186 19.2678 12.6509 19.8356 13.6778 20.0994C15.7021 20.594 17.6275 19.9154 18.8927 18.5697C19.8719 19.9729 21.8302 20.709 23.6236 19.9614C25.0978 19.3518 26 17.776 26 16.1197V14.866C26 8.75837 21.6102 3.4444 15.7901 3.03033ZM14.998 17.9485C13.1717 17.9485 11.6974 16.4073 11.6974 14.4979C11.6974 12.5886 13.1717 11.0473 14.998 11.0473C16.8243 11.0473 18.2986 12.5886 18.2986 14.4979C18.2986 16.4073 16.8243 17.9485 14.998 17.9485Z" fill="#292929"/>
</svg>
