<svg width="63" height="67" viewBox="0 0 63 67" fill="none" xmlns="http://www.w3.org/2000/svg">
<path d="M22.464 42V28.704C21.952 28.928 21.056 29.248 19.776 29.664C18.496 30.08 16.832 30.288 14.784 30.288C10.816 30.288 7.84 29.408 5.856 27.648C3.872 25.888 2.88 23.072 2.88 19.2V7.92H9.312V18.48C9.312 20.496 9.824 21.984 10.848 22.944C11.872 23.872 13.664 24.336 16.224 24.336C17.344 24.336 18.464 24.224 19.584 24C20.704 23.744 21.664 23.424 22.464 23.04V7.92H28.896V42H22.464Z" fill="#292929"/>
<path d="M26.44 65.528V53.192H28.264C29.384 53.192 30.328 52.584 31.096 51.368C31.864 50.152 32.472 48.184 32.92 45.464C33.368 42.744 33.656 39.144 33.784 34.664L34.072 24.92H56.776V53.192H61.288V65.528H55.48V59H32.248V65.528H26.44ZM36.184 53.192H50.2V30.728H40.072L39.976 35.528C39.816 40.52 39.464 44.424 38.92 47.24C38.408 50.056 37.496 52.04 36.184 53.192Z" fill="#999999"/>
</svg>
