<svg width="35" height="35" viewBox="0 0 35 35" fill="none" xmlns="http://www.w3.org/2000/svg">
<path d="M17.4986 10.7581C15.7101 10.7581 13.9949 11.4685 12.7303 12.7331C11.4657 13.9978 10.7552 15.7129 10.7552 17.5014C10.7552 19.2898 11.4657 21.005 12.7303 22.2696C13.9949 23.5343 15.7101 24.2447 17.4986 24.2447C19.287 24.2447 21.0022 23.5343 22.2668 22.2696C23.5314 21.005 24.2419 19.2898 24.2419 17.5014C24.2419 15.7129 23.5314 13.9978 22.2668 12.7331C21.0022 11.4685 19.287 10.7581 17.4986 10.7581ZM17.4986 21.8808C16.3367 21.8808 15.2224 21.4192 14.4008 20.5976C13.5793 19.7761 13.1177 18.6618 13.1177 17.4999C13.1177 16.3381 13.5793 15.2238 14.4008 14.4022C15.2224 13.5806 16.3367 13.1191 17.4986 13.1191C18.6604 13.1191 19.7747 13.5806 20.5963 14.4022C21.4178 15.2238 21.8794 16.3381 21.8794 17.4999C21.8794 18.6618 21.4178 19.7761 20.5963 20.5976C19.7747 21.4192 18.6604 21.8808 17.4986 21.8808Z" fill="#C4C4C4"/>
<path d="M24.5088 12.0822C25.377 12.0822 26.0808 11.3783 26.0808 10.5101C26.0808 9.64183 25.377 8.93799 24.5088 8.93799C23.6405 8.93799 22.9367 9.64183 22.9367 10.5101C22.9367 11.3783 23.6405 12.0822 24.5088 12.0822Z" fill="#C4C4C4"/>
<path d="M29.9439 8.91191C29.6063 8.04009 29.0904 7.24836 28.4292 6.58741C27.768 5.92646 26.9761 5.41084 26.1041 5.07357C25.0838 4.69055 24.0059 4.48345 22.9162 4.46107C21.5119 4.39982 21.0671 4.38232 17.5058 4.38232C13.9446 4.38232 13.4881 4.38232 12.0954 4.46107C11.0066 4.4823 9.92942 4.68945 8.9104 5.07357C8.03822 5.41045 7.2461 5.92593 6.58484 6.58693C5.92359 7.24793 5.40782 8.03986 5.07061 8.91191C4.68751 9.93218 4.48088 11.0102 4.45957 12.0998C4.39686 13.5027 4.3779 13.9475 4.3779 17.5102C4.3779 21.0715 4.3779 21.525 4.45957 22.9207C4.48144 24.0115 4.68707 25.0877 5.07061 26.11C5.40876 26.9818 5.92504 27.7734 6.58645 28.4343C7.24786 29.0952 8.03987 29.6109 8.91186 29.9484C9.92895 30.3468 11.0066 30.5687 12.0983 30.6046C13.5027 30.6659 13.9475 30.6848 17.5087 30.6848C21.07 30.6848 21.5264 30.6848 22.9191 30.6046C24.0087 30.5825 25.0866 30.3759 26.1071 29.9936C26.9788 29.6555 27.7705 29.1395 28.4316 28.4783C29.0927 27.8172 29.6088 27.0255 29.9469 26.1538C30.3304 25.1329 30.536 24.0567 30.5579 22.9659C30.6206 21.563 30.6396 21.1182 30.6396 17.5554C30.6396 13.9927 30.6396 13.5407 30.5579 12.145C30.5409 11.04 30.3332 9.94623 29.9439 8.91191ZM28.1677 22.8127C28.1583 23.6532 28.0049 24.4858 27.7141 25.2744C27.4951 25.8415 27.1599 26.3565 26.7299 26.7862C26.2999 27.216 25.7847 27.5509 25.2175 27.7696C24.4376 28.059 23.6138 28.2124 22.7821 28.2232C21.3966 28.2873 21.0058 28.3034 17.4533 28.3034C13.8979 28.3034 13.5348 28.3034 12.1231 28.2232C11.2918 28.213 10.4684 28.0596 9.68915 27.7696C9.11994 27.5523 8.60269 27.2179 8.17086 26.7881C7.73903 26.3583 7.40224 25.8426 7.18227 25.2744C6.89563 24.4943 6.74231 23.6715 6.72873 22.8404C6.66602 21.455 6.65144 21.0642 6.65144 17.5117C6.65144 13.9577 6.65144 13.5946 6.72873 12.1815C6.73816 11.3415 6.89156 10.5094 7.18227 9.72128C7.62707 8.57066 8.53852 7.66503 9.68915 7.22462C10.4688 6.93607 11.2919 6.78269 12.1231 6.77107C13.51 6.70837 13.8994 6.69087 17.4533 6.69087C21.0073 6.69087 21.3719 6.69087 22.7821 6.77107C23.6139 6.78108 24.4378 6.93451 25.2175 7.22462C25.7847 7.44376 26.2998 7.77908 26.7297 8.20903C27.1597 8.63899 27.495 9.1541 27.7141 9.72128C28.0008 10.5014 28.1541 11.3242 28.1677 12.1552C28.2304 13.5421 28.2464 13.9315 28.2464 17.4854C28.2464 21.0379 28.2464 21.42 28.1837 22.8142H28.1677V22.8127Z" fill="#C4C4C4"/>
</svg>
