<svg width="426" height="327" viewBox="0 0 426 327" fill="none" xmlns="http://www.w3.org/2000/svg">
<g clip-path="url(#clip0)">
<path d="M105.399 77.7074H107.162V28.4873C107.162 20.932 110.108 13.6861 115.352 8.34375C120.595 3.00134 127.707 9.53331e-06 135.122 1.02411e-10H237.471C241.143 -1.00307e-05 244.779 0.736826 248.171 2.16844C251.563 3.60005 254.646 5.6984 257.242 8.34368C259.838 10.989 261.898 14.1294 263.303 17.5856C264.708 21.0418 265.431 24.7462 265.431 28.4872V298.513C265.431 302.254 264.708 305.958 263.303 309.414C261.898 312.871 259.838 316.011 257.242 318.656C254.646 321.302 251.563 323.4 248.171 324.832C244.779 326.263 241.143 327 237.471 327H135.122C127.707 327 120.595 323.999 115.352 318.656C110.108 313.314 107.162 306.068 107.162 298.513V112.743H105.399L105.399 77.7074Z" fill="#3F3D56"/>
<path d="M133.994 7.41142H147.354C146.74 8.94611 146.505 10.6112 146.671 12.26C146.837 13.9088 147.398 15.4907 148.306 16.8663C149.213 18.242 150.439 19.3692 151.874 20.1486C153.31 20.928 154.912 21.3357 156.539 21.3359H215.173C216.8 21.3357 218.402 20.928 219.837 20.1486C221.273 19.3692 222.498 18.242 223.406 16.8663C224.313 15.4907 224.875 13.9088 225.041 12.26C225.207 10.6112 224.972 8.94611 224.358 7.41142H236.836C242.374 7.41141 247.685 9.65277 251.6 13.6424C255.516 17.632 257.716 23.0432 257.716 28.6854V298.315C257.716 301.108 257.176 303.875 256.127 306.456C255.077 309.037 253.539 311.382 251.6 313.358C249.662 315.333 247.36 316.9 244.826 317.969C242.293 319.038 239.578 319.589 236.836 319.589H133.994C131.252 319.589 128.537 319.038 126.004 317.969C123.47 316.9 121.168 315.333 119.23 313.358C117.291 311.382 115.753 309.037 114.703 306.456C113.654 303.875 113.114 301.108 113.114 298.315V28.6854C113.114 25.8916 113.654 23.1252 114.703 20.5442C115.753 17.9631 117.291 15.6179 119.23 13.6424C121.168 11.6669 123.47 10.0999 126.004 9.03079C128.537 7.96167 131.252 7.41141 133.994 7.41142Z" fill="white"/>
<path d="M201.48 124.328C191.251 124.328 182.958 123.524 182.958 122.531C182.958 121.539 191.251 120.734 201.48 120.734C211.709 120.734 220.002 121.539 220.002 122.531C220.002 123.524 211.709 124.328 201.48 124.328Z" fill="#E6E6E6"/>
<path d="M37.3687 44.872H207.88V101.904H201.421V116.82L186.782 101.904H37.3687V44.872Z" fill="#EAC435"/>
<path d="M131.299 64.1851H53.7629V66.5825H131.299V64.1851Z" fill="white"/>
<path d="M188.902 72.4785H53.7629V74.8759H188.902V72.4785Z" fill="white"/>
<path d="M188.769 80.7719H53.7629V83.1693H188.769V80.7719Z" fill="white"/>
<path d="M73.456 216.887H209.564V262.412H204.408V274.318L192.723 262.412H73.456V216.887Z" fill="#EAC435"/>
<path d="M148.434 232.303H86.5425V234.217H148.434V232.303Z" fill="white"/>
<path d="M194.415 238.923H86.5425V240.837H194.415V238.923Z" fill="white"/>
<path d="M194.309 245.544H86.5425V247.457H194.309V245.544Z" fill="white"/>
<path d="M204.456 280.312C196.29 280.312 189.671 279.669 189.671 278.877C189.671 278.085 196.29 277.443 204.456 277.443C212.621 277.443 219.24 278.085 219.24 278.877C219.24 279.669 212.621 280.312 204.456 280.312Z" fill="#E6E6E6"/>
<path d="M215.267 190.827C205.038 190.827 196.745 190.022 196.745 189.029C196.745 188.037 205.038 187.232 215.267 187.232C225.496 187.232 233.789 188.037 233.789 189.029C233.789 190.022 225.496 190.827 215.267 190.827Z" fill="#E6E6E6"/>
<path d="M328.789 134.297H208.88V174.404H213.422V184.893L223.717 174.404H328.789V134.297Z" fill="#EAC435"/>
<path d="M275.844 147.57H221.318V149.256H275.844V147.57Z" fill="white"/>
<path d="M316.352 153.402H221.318V155.088H316.352V153.402Z" fill="white"/>
<path d="M316.259 159.235H221.318V160.921H316.259V159.235Z" fill="white"/>
<path d="M387.2 232.128C386.625 233.137 385.68 233.872 384.573 234.171C383.467 234.47 382.289 234.309 381.299 233.723C380.309 233.137 379.588 232.175 379.294 231.047C379.001 229.92 379.159 228.72 379.734 227.711C379.854 227.505 379.99 227.308 380.14 227.123L376.509 200.753L376.4 199.963L375.663 194.582L375.554 193.807L375.956 193.826L382.991 194.154L384.878 194.24L385.114 199.149L386.452 226.747C387.152 227.429 387.605 228.33 387.741 229.306C387.876 230.282 387.686 231.276 387.2 232.128Z" fill="#A0616A"/>
<path d="M376.421 200.203L385.355 199.368C385.818 199.323 386.245 199.094 386.543 198.73C386.841 198.365 386.986 197.896 386.945 197.423L385.288 178.495C385.208 177.576 384.948 176.682 384.522 175.867C384.097 175.052 383.516 174.333 382.813 173.751C382.11 173.169 381.299 172.736 380.429 172.479C379.559 172.222 378.647 172.145 377.748 172.253C376.848 172.361 375.979 172.652 375.191 173.109C374.404 173.565 373.715 174.178 373.164 174.911C372.613 175.644 372.212 176.482 371.985 177.375C371.757 178.269 371.708 179.199 371.84 180.113L374.519 198.678C374.581 199.104 374.79 199.493 375.109 199.774C375.428 200.055 375.836 200.21 376.258 200.211C376.312 200.211 376.367 200.208 376.421 200.203Z" fill="#CCCCCC"/>
<path d="M383.192 184.91C384.095 182.303 384.137 179.466 383.311 176.831C382.485 174.197 380.836 171.91 378.616 170.32C375.247 167.971 370.637 167.128 365.672 173.15C355.743 185.193 353.143 198.441 353.143 198.441L373.474 201.813C373.474 201.813 380.389 193.202 383.192 184.91Z" fill="#CCCCCC"/>
<path d="M350.31 320.569H344.513L341.756 297.788L350.311 297.789L350.31 320.569Z" fill="#A0616A"/>
<path d="M333.334 326.052L351.552 326.053L351.552 318.881L338.956 318.881C338.218 318.881 337.487 319.029 336.804 319.317C336.122 319.604 335.503 320.026 334.981 320.558C334.459 321.09 334.045 321.721 333.762 322.416C333.48 323.111 333.334 323.856 333.334 324.608L333.334 326.052Z" fill="#2F2E41"/>
<path d="M397.966 315.418L392.463 317.271L382.827 296.524L390.95 293.789L397.966 315.418Z" fill="#A0616A"/>
<path d="M383.538 326.053L400.835 320.228L398.626 313.419L386.666 317.446C385.965 317.682 385.317 318.057 384.758 318.548C384.199 319.039 383.741 319.638 383.409 320.31C383.077 320.982 382.878 321.714 382.824 322.464C382.77 323.214 382.861 323.968 383.093 324.682L383.538 326.053Z" fill="#2F2E41"/>
<path d="M364.86 162.897C359.232 159.763 357.164 152.574 360.24 146.84C363.317 141.106 370.373 138.999 376 142.133C381.628 145.268 383.696 152.457 380.62 158.191C377.543 163.924 370.488 166.031 364.86 162.897Z" fill="#A0616A"/>
<path d="M360.262 314.227L365.646 278.028C365.703 277.641 365.89 277.287 366.176 277.026C366.461 276.765 366.826 276.613 367.21 276.596C367.593 276.578 367.97 276.698 368.276 276.932C368.583 277.167 368.8 277.503 368.89 277.883L377.088 312.381C377.217 312.909 377.535 313.37 377.98 313.671C378.425 313.973 378.965 314.094 379.493 314.012L402.105 310.309C402.405 310.26 402.691 310.146 402.944 309.975C403.197 309.804 403.412 309.579 403.573 309.317C403.733 309.055 403.837 308.76 403.877 308.453C403.917 308.147 403.892 307.835 403.804 307.539L374.319 208.497C374.235 208.215 374.225 207.916 374.29 207.629L375.272 203.295C375.38 202.825 375.33 202.332 375.131 201.894C374.931 201.456 374.594 201.099 374.172 200.88C370.157 198.792 359.99 194.453 352.313 199.206C352.064 199.361 351.849 199.566 351.68 199.808C351.51 200.051 351.392 200.326 351.33 200.616L328.297 310.916C328.234 311.216 328.234 311.526 328.298 311.826C328.362 312.125 328.487 312.408 328.666 312.655C328.845 312.901 329.073 313.107 329.335 313.257C329.597 313.407 329.888 313.499 330.188 313.526L357.969 316.061C358.033 316.067 358.097 316.07 358.16 316.07C358.668 316.069 359.16 315.882 359.545 315.544C359.931 315.207 360.185 314.739 360.262 314.227Z" fill="#2F2E41"/>
<path d="M378.13 144.156C377.255 143.619 376.478 142.931 375.835 142.123C375.517 141.715 375.309 141.23 375.228 140.716C375.148 140.201 375.199 139.674 375.376 139.186C375.963 137.867 377.707 137.449 379.057 137.899C380.408 138.349 381.452 139.427 382.439 140.468C383.309 141.386 384.204 142.343 384.616 143.547C385.029 144.751 384.817 146.278 383.791 147.008C382.784 147.725 381.336 147.432 380.367 146.662C379.399 145.892 378.799 144.749 378.228 143.641L378.13 144.156Z" fill="#2F2E41"/>
<path d="M382.064 140.785C382.128 137.451 385.858 135.06 389.079 135.651C392.299 136.242 394.775 139.04 396.015 142.126C398.633 148.647 396.667 156.086 394.144 162.646C391.621 169.205 388.499 175.864 388.867 182.899C389.116 186.702 390.368 190.366 392.492 193.503C394.615 196.641 397.531 199.136 400.931 200.725C397.296 202.404 392.951 200.67 389.896 198.053C383.112 192.24 380.494 181.893 383.673 173.463C385.242 169.305 388.006 165.748 390.164 161.874C392.321 158.001 393.905 153.435 392.791 149.128C391.677 144.821 386.935 141.333 382.882 143.001L382.064 140.785Z" fill="#2F2E41"/>
<path d="M369.734 157.766C370.746 156.023 371.768 153.734 369.917 152.211C369.515 151.895 369.054 151.664 368.563 151.531C368.072 151.399 367.56 151.368 367.056 151.44C364.97 151.696 362.698 151.802 360.679 151.03C359.922 150.764 359.225 150.346 358.629 149.801C358.033 149.256 357.551 148.594 357.212 147.855C356.169 145.338 357.474 142.28 359.654 140.69C360.987 139.752 362.562 139.236 364.182 139.207C365.802 139.178 367.394 139.636 368.759 140.526C371.582 139.255 375.006 139.82 377.571 141.569C380.135 143.317 381.89 146.118 382.843 149.108C383.721 151.681 383.872 154.454 383.279 157.111C382.802 158.96 381.895 160.664 380.634 162.079C379.373 163.495 377.797 164.58 376.037 165.242C375.352 165.518 374.607 165.605 373.879 165.494C373.15 165.384 372.462 165.081 371.885 164.615C371.885 164.615 370.284 163.191 369.783 161.477C369.399 160.16 369.193 158.697 369.734 157.766Z" fill="#2F2E41"/>
<path d="M335.284 168.323C335.342 168.583 335.38 168.847 335.397 169.113L355.708 181.051L360.644 178.156L365.907 185.176L357.657 191.167C356.99 191.651 356.187 191.902 355.369 191.882C354.551 191.861 353.761 191.571 353.118 191.055L332.175 174.22C331.229 174.577 330.2 174.631 329.224 174.377C328.247 174.123 327.37 173.572 326.708 172.798C326.046 172.023 325.632 171.062 325.519 170.041C325.407 169.021 325.602 167.989 326.079 167.085C326.556 166.18 327.292 165.445 328.189 164.977C329.086 164.509 330.102 164.33 331.101 164.465C332.101 164.599 333.036 165.04 333.783 165.729C334.53 166.419 335.053 167.323 335.284 168.323V168.323Z" fill="#A0616A"/>
<path d="M356.387 181.617L362.951 190.285C363.138 190.532 363.375 190.734 363.645 190.879C363.916 191.024 364.214 191.108 364.519 191.125C364.824 191.142 365.13 191.092 365.414 190.978C365.699 190.864 365.956 190.689 366.168 190.465L373.599 182.602C374.833 181.622 375.634 180.183 375.827 178.601C376.021 177.019 375.591 175.424 374.632 174.165C373.672 172.905 372.262 172.085 370.71 171.884C369.158 171.683 367.591 172.117 366.353 173.091L357.032 178.401C356.765 178.553 356.534 178.762 356.353 179.013C356.173 179.265 356.048 179.553 355.987 179.858C355.925 180.163 355.929 180.479 355.998 180.782C356.067 181.085 356.2 181.37 356.387 181.617Z" fill="#CCCCCC"/>
<path d="M289.612 327H425.448C425.594 327 425.735 326.941 425.838 326.835C425.942 326.73 426 326.587 426 326.437C426 326.288 425.942 326.145 425.838 326.04C425.735 325.934 425.594 325.875 425.448 325.875H289.612C289.466 325.875 289.325 325.934 289.222 326.04C289.118 326.145 289.06 326.288 289.06 326.437C289.06 326.587 289.118 326.73 289.222 326.835C289.325 326.941 289.466 327 289.612 327H289.612Z" fill="#CCCCCC"/>
</g>
<defs>
<clipPath id="clip0">
<rect width="426" height="327" fill="white" transform="matrix(-1 0 0 1 426 0)"/>
</clipPath>
</defs>
</svg>
