<svg width="47" height="53" viewBox="0 0 47 53" fill="none" xmlns="http://www.w3.org/2000/svg">
<path d="M16.848 32V22.028C16.464 22.196 15.792 22.436 14.832 22.748C13.872 23.06 12.624 23.216 11.088 23.216C8.112 23.216 5.88 22.556 4.392 21.236C2.904 19.916 2.16 17.804 2.16 14.9V6.44H6.984V14.36C6.984 15.872 7.368 16.988 8.136 17.708C8.904 18.404 10.248 18.752 12.168 18.752C13.008 18.752 13.848 18.668 14.688 18.5C15.528 18.308 16.248 18.068 16.848 17.78V6.44H21.672V32H16.848Z" fill="#292929"/>
<path d="M19.08 51.896V42.644H20.448C21.288 42.644 21.996 42.188 22.572 41.276C23.148 40.364 23.604 38.888 23.94 36.848C24.276 34.808 24.492 32.108 24.588 28.748L24.804 21.44H41.832V42.644H45.216V51.896H40.86V47H23.436V51.896H19.08ZM26.388 42.644H36.9V25.796H29.304L29.232 29.396C29.112 33.14 28.848 36.068 28.44 38.18C28.056 40.292 27.372 41.78 26.388 42.644Z" fill="#999999"/>
</svg>
