<svg width="39" height="40" viewBox="0 0 39 40" fill="none" xmlns="http://www.w3.org/2000/svg">
<path d="M14.04 26V17.69C13.72 17.83 13.16 18.03 12.36 18.29C11.56 18.55 10.52 18.68 9.24 18.68C6.76 18.68 4.9 18.13 3.66 17.03C2.42 15.93 1.8 14.17 1.8 11.75V4.7H5.82V11.3C5.82 12.56 6.14 13.49 6.78 14.09C7.42 14.67 8.54 14.96 10.14 14.96C10.84 14.96 11.54 14.89 12.24 14.75C12.94 14.59 13.54 14.39 14.04 14.15V4.7H18.06V26H14.04Z" fill="#292929"/>
<path d="M15.9 39.08V31.37H17.04C17.74 31.37 18.33 30.99 18.81 30.23C19.29 29.47 19.67 28.24 19.95 26.54C20.23 24.84 20.41 22.59 20.49 19.79L20.67 13.7H34.86V31.37H37.68V39.08H34.05V35H19.53V39.08H15.9ZM21.99 31.37H30.75V17.33H24.42L24.36 20.33C24.26 23.45 24.04 25.89 23.7 27.65C23.38 29.41 22.81 30.65 21.99 31.37Z" fill="#999999"/>
</svg>
