<svg width="417" height="307" viewBox="0 0 417 307" fill="none" xmlns="http://www.w3.org/2000/svg">
<g clip-path="url(#clip0)">
<path d="M351.259 135.861L352.496 124.957C352.936 121.082 354.759 117.558 357.563 115.16C360.368 112.762 363.924 111.686 367.451 112.169C370.977 112.653 374.184 114.656 376.366 117.738C378.548 120.82 379.527 124.728 379.087 128.603L377.849 139.507C377.79 140.027 377.545 140.5 377.168 140.822C376.792 141.144 376.314 141.289 375.841 141.225L352.822 138.069C352.348 138.003 351.918 137.734 351.625 137.32C351.332 136.906 351.2 136.381 351.259 135.861Z" fill="#2F2E41"/>
<path d="M362.285 139.114C367.71 139.114 372.108 134.281 372.108 128.319C372.108 122.357 367.71 117.524 362.285 117.524C356.859 117.524 352.461 122.357 352.461 128.319C352.461 134.281 356.859 139.114 362.285 139.114Z" fill="#FFB8B8"/>
<path d="M349.252 125.399C349.603 122.335 351.046 119.549 353.263 117.653C355.481 115.756 358.293 114.904 361.081 115.283L363.066 115.555C365.854 115.941 368.389 117.526 370.114 119.963C371.84 122.4 372.616 125.49 372.271 128.554L372.246 128.773L368.052 128.198L367.122 123.6L366.336 127.962L364.169 127.665L363.699 125.345L363.303 127.546L349.227 125.617L349.252 125.399Z" fill="#2F2E41"/>
<path d="M314.24 166.827C314.54 167.475 314.966 168.043 315.487 168.49C316.009 168.937 316.613 169.254 317.258 169.417C317.902 169.579 318.572 169.585 319.219 169.433C319.865 169.281 320.474 168.975 321.002 168.536L329.924 174.28L334.422 169.173L321.719 161.256C320.99 160.331 319.977 159.732 318.873 159.572C317.768 159.413 316.649 159.704 315.727 160.391C314.806 161.078 314.145 162.112 313.871 163.298C313.596 164.485 313.728 165.74 314.24 166.827Z" fill="#FFB8B8"/>
<path d="M343.482 177.148C336.901 177.148 325.32 173.91 324.678 173.73L324.476 173.673L326.299 163.531L343.987 167.371L353.597 152.5L364.63 151.267L364.322 151.712C364.178 151.92 349.956 172.494 347.743 175.945C347.185 176.816 345.589 177.148 343.482 177.148Z" fill="#3F3D56"/>
<path d="M345.246 215.211L344.983 215.073C344.927 215.043 339.335 212.055 336.439 206.22C333.557 200.413 347.05 175.778 347.994 174.069L348.007 166.246L352.861 151.844L359.051 147.999L353.737 161.627L345.246 215.211Z" fill="#3F3D56"/>
<path d="M339.045 299.295L333.129 299.294L330.314 274.217L339.046 274.218L339.045 299.295Z" fill="#FFB8B8"/>
<path d="M340.553 305.597L321.477 305.596V305.331C321.477 303.167 322.26 301.091 323.652 299.561C325.045 298.031 326.933 297.172 328.902 297.171H328.903L340.554 297.172L340.553 305.597Z" fill="#2F2E41"/>
<path d="M402.591 293.597L396.969 295.621L387.189 272.754L395.486 269.767L402.591 293.597Z" fill="#FFB8B8"/>
<path d="M405.811 299.07L387.683 305.597L387.608 305.345C386.994 303.288 387.15 301.048 388.039 299.118C388.929 297.187 390.48 295.724 392.351 295.05L392.352 295.05L403.424 291.063L405.811 299.07Z" fill="#2F2E41"/>
<path d="M391.136 289.497L374.271 258.556L360.034 225.498L347.222 254.699L342.133 292.519L324.284 292.791L324.355 292.485L351.669 173.217L373.06 176.729L372.087 192.246L372.667 193.153C377.499 200.697 382.495 208.496 379.63 216.905L387.753 243.413L405.736 287.552L391.136 289.497Z" fill="#2F2E41"/>
<path d="M352.646 199.066C349.546 199.066 346.01 195.176 347.844 188.536L347.726 188.441L352.132 167.045C348.287 161.001 353.357 156.013 353.832 155.567L356.253 150.779L366.932 143.337L372.335 192.672L372.255 192.756C368.352 196.86 355.246 199.066 352.646 199.066Z" fill="#EAC435"/>
<path d="M374.516 210.198C374.092 210.205 373.668 210.156 373.255 210.051C372.839 209.937 372.167 209.356 371.128 205.638C366.998 190.859 362.121 146.391 365.664 142.039L365.745 141.94L371.562 143.005C372.046 142.613 374.583 140.666 376.925 141.005C377.407 141.071 377.872 141.246 378.29 141.518C378.708 141.789 379.071 142.152 379.357 142.584L379.397 142.642L381.25 171.616L388.04 205.713L387.877 205.794C387.482 205.992 379.004 210.198 374.516 210.198Z" fill="#3F3D56"/>
<path d="M370.604 198.873C371.265 198.849 371.913 198.666 372.503 198.337C373.093 198.007 373.61 197.54 374.017 196.967C374.425 196.395 374.713 195.731 374.862 195.022C375.011 194.314 375.016 193.579 374.879 192.867L383.395 186.422L381.092 179.779L369.183 189.068C368.111 189.401 367.188 190.155 366.588 191.187C365.989 192.218 365.755 193.456 365.93 194.664C366.105 195.873 366.678 196.969 367.539 197.745C368.4 198.521 369.491 198.922 370.604 198.873Z" fill="#FFB8B8"/>
<path d="M380.585 191.587L372.999 185.474L383.662 169.495L375.479 153.627L379.14 142.123L379.377 142.618C379.487 142.849 390.414 165.726 392.32 169.392C394.303 173.205 381.273 190.668 380.717 191.409L380.585 191.587Z" fill="#3F3D56"/>
<path d="M209.957 263.503L203.501 260.516L199.073 224.95H140.096L135.296 260.371L129.52 263.544C129.244 263.696 129.022 263.946 128.891 264.254C128.76 264.561 128.728 264.908 128.799 265.239C128.87 265.569 129.04 265.864 129.282 266.074C129.525 266.285 129.824 266.4 130.133 266.4H209.425C209.742 266.4 210.049 266.279 210.294 266.059C210.539 265.838 210.707 265.532 210.77 265.191C210.832 264.85 210.786 264.495 210.638 264.188C210.489 263.88 210.249 263.638 209.957 263.503Z" fill="#E6E6E6"/>
<path d="M314.763 229.682H25.0544C23.5344 229.678 22.0778 229.012 21.0042 227.83C19.9306 226.647 19.3276 225.045 19.3276 223.375V178.48H320.49V223.375C320.489 225.045 319.887 226.647 318.813 227.83C317.739 229.012 316.283 229.678 314.763 229.682Z" fill="#CCCCCC"/>
<path d="M320.792 199.698H19.0627V7.60358C19.0649 5.58766 19.7945 3.65497 21.0917 2.22952C22.3889 0.804064 24.1476 0.00226086 25.982 0H313.873C315.707 0.00225568 317.466 0.804058 318.763 2.22951C320.06 3.65496 320.79 5.58764 320.792 7.60358V199.698Z" fill="#3F3D56"/>
<path d="M302.771 185.756H37.0837C35.6695 185.754 34.3137 185.136 33.3136 184.037C32.3136 182.938 31.7511 181.448 31.7495 179.894V19.8041C31.7511 18.2499 32.3136 16.7599 33.3136 15.6609C34.3136 14.5619 35.6695 13.9437 37.0837 13.9419H302.771C304.185 13.9437 305.541 14.5619 306.541 15.6609C307.541 16.7599 308.103 18.2499 308.105 19.8041V179.894C308.103 181.448 307.541 182.938 306.541 184.037C305.541 185.136 304.185 185.754 302.771 185.756Z" fill="white"/>
<path d="M244.439 266.77H95.1461C94.9932 266.774 94.8435 266.722 94.7203 266.622C94.5972 266.523 94.5075 266.381 94.4652 266.219C94.4388 266.109 94.4358 265.994 94.4562 265.883C94.4767 265.771 94.5202 265.666 94.5833 265.576C94.6464 265.486 94.7276 265.413 94.8204 265.363C94.9132 265.313 95.0153 265.286 95.1188 265.286H244.384C244.545 265.28 244.704 265.334 244.834 265.44C244.963 265.545 245.057 265.695 245.099 265.867C245.121 265.975 245.12 266.088 245.097 266.196C245.074 266.304 245.03 266.406 244.966 266.492C244.903 266.579 244.823 266.649 244.732 266.697C244.64 266.745 244.541 266.77 244.439 266.77Z" fill="#CCCCCC"/>
<path d="M299.934 39.8236H235.786V93.6806H299.934V39.8236Z" fill="#F2F2F2"/>
<path d="M296.747 42.4998H238.973V91.0045H296.747V42.4998Z" fill="white"/>
<path d="M268.875 78.4781C268.882 78.4782 268.89 78.4781 268.897 78.4776C272.808 78.2528 276.494 76.3995 279.206 73.2946C281.918 70.1896 283.452 66.0662 283.495 61.7629C283.539 57.4595 282.09 53.2994 279.442 50.1284C276.795 46.9575 273.147 45.0138 269.242 44.6927C269.194 44.6885 269.145 44.6954 269.1 44.7128C269.054 44.7303 269.012 44.7579 268.976 44.794C268.941 44.8295 268.912 44.8727 268.893 44.9209C268.873 44.969 268.863 45.0211 268.863 45.0738L268.526 78.0872C268.525 78.1898 268.561 78.2886 268.627 78.3619C268.692 78.4352 268.781 78.477 268.875 78.4781Z" fill="#3F3D56"/>
<path d="M256.794 50.1518C256.914 50.1534 257.029 50.2071 257.113 50.3012L267.454 61.924C267.496 61.9705 267.529 62.0256 267.551 62.0861C267.573 62.1466 267.584 62.2114 267.583 62.2766L267.422 78.0736C267.422 78.1414 267.408 78.2084 267.383 78.2703C267.358 78.3322 267.322 78.3877 267.276 78.4333C267.23 78.4795 267.176 78.5149 267.118 78.5373C267.059 78.5597 266.997 78.5686 266.935 78.5635C264.059 78.327 261.301 77.214 258.969 75.3495C256.638 73.485 254.826 70.9429 253.736 68.0089C252.647 65.0749 252.324 61.8652 252.803 58.7405C253.283 55.6158 254.545 52.6998 256.45 50.3204C256.491 50.2691 256.541 50.2277 256.598 50.1987C256.654 50.1697 256.715 50.1538 256.777 50.1519C256.783 50.1517 256.789 50.1517 256.794 50.1518Z" fill="#E6E6E6"/>
<path d="M267.31 44.5578C267.426 44.5593 267.537 44.609 267.62 44.6967C267.665 44.7435 267.7 44.8 267.724 44.8626C267.748 44.9251 267.76 44.9925 267.759 45.0603L267.613 59.3134C267.612 59.4116 267.585 59.5072 267.535 59.5881C267.484 59.6691 267.413 59.7319 267.33 59.7684C267.247 59.8049 267.156 59.8137 267.069 59.7934C266.981 59.7732 266.901 59.725 266.839 59.6548L257.814 49.5125C257.772 49.4642 257.738 49.4069 257.716 49.344C257.694 49.2811 257.684 49.2139 257.686 49.1466C257.688 49.0792 257.703 49.013 257.729 48.9521C257.756 48.8912 257.793 48.8367 257.839 48.7921C260.463 46.2533 263.791 44.7616 267.282 44.5584C267.292 44.5579 267.301 44.5577 267.31 44.5578Z" fill="#EAC435"/>
<path d="M262.661 85.3241C262.655 85.9254 262.487 86.5111 262.178 87.0074C261.869 87.5036 261.433 87.8879 260.925 88.1118C260.417 88.3357 259.86 88.389 259.325 88.2651C258.789 88.1412 258.299 87.8456 257.917 87.4156C257.534 86.9857 257.276 86.4407 257.176 85.8497C257.075 85.2586 257.136 84.648 257.351 84.0951C257.566 83.5421 257.926 83.0717 258.384 82.7432C258.842 82.4148 259.379 82.2431 259.926 82.2498C260.659 82.2598 261.359 82.589 261.872 83.1654C262.385 83.7417 262.669 84.518 262.661 85.3241Z" fill="#EAC435"/>
<path d="M270.566 85.4214C270.559 86.0227 270.391 86.6085 270.082 87.1047C269.773 87.6009 269.337 87.9852 268.829 88.2091C268.321 88.433 267.764 88.4863 267.229 88.3624C266.694 88.2385 266.204 87.9429 265.821 87.5129C265.438 87.083 265.18 86.538 265.08 85.947C264.979 85.3559 265.04 84.7453 265.255 84.1924C265.47 83.6394 265.83 83.169 266.288 82.8405C266.746 82.5121 267.283 82.3404 267.83 82.3471C268.564 82.3571 269.263 82.6863 269.776 83.2627C270.289 83.839 270.573 84.6153 270.566 85.4214Z" fill="#3F3D56"/>
<path d="M278.47 85.5188C278.464 86.1201 278.295 86.7059 277.986 87.2021C277.677 87.6983 277.241 88.0826 276.733 88.3065C276.225 88.5304 275.668 88.5837 275.133 88.4598C274.598 88.3359 274.108 88.0403 273.725 87.6103C273.342 87.1804 273.085 86.6354 272.984 86.0444C272.883 85.4533 272.944 84.8427 273.159 84.2898C273.374 83.7368 273.734 83.2664 274.192 82.9379C274.65 82.6095 275.187 82.4378 275.734 82.4445C276.468 82.4545 277.168 82.7837 277.68 83.3601C278.193 83.9364 278.477 84.7127 278.47 85.5188Z" fill="#E6E6E6"/>
<path d="M299.259 102.157H235.11V156.014H299.259V102.157Z" fill="#F2F2F2"/>
<path d="M296.072 104.833H238.298V153.338H296.072V104.833Z" fill="white"/>
<path d="M248.1 120.775C249.425 120.775 250.499 119.595 250.499 118.139C250.499 116.683 249.425 115.503 248.1 115.503C246.775 115.503 245.702 116.683 245.702 118.139C245.702 119.595 246.775 120.775 248.1 120.775Z" fill="#3F3D56"/>
<path d="M286.643 116.087C286.857 116.087 287.068 116.133 287.266 116.223C287.464 116.312 287.643 116.444 287.795 116.61C287.946 116.776 288.066 116.973 288.148 117.19C288.23 117.407 288.272 117.64 288.272 117.875C288.272 118.11 288.23 118.343 288.148 118.56C288.066 118.777 287.946 118.974 287.795 119.14C287.643 119.306 287.464 119.438 287.266 119.528C287.068 119.617 286.857 119.663 286.643 119.663H261.414C260.982 119.663 260.568 119.474 260.263 119.139C259.958 118.804 259.787 118.349 259.787 117.875C259.787 117.401 259.958 116.946 260.263 116.611C260.568 116.276 260.982 116.087 261.414 116.087H286.643ZM286.643 115.649H261.414C261.147 115.649 260.884 115.706 260.638 115.818C260.392 115.93 260.168 116.093 259.98 116.3C259.791 116.507 259.642 116.752 259.54 117.023C259.438 117.293 259.385 117.582 259.385 117.875C259.385 118.168 259.438 118.457 259.54 118.728C259.642 118.998 259.791 119.243 259.98 119.45C260.168 119.657 260.392 119.821 260.638 119.932C260.884 120.044 261.147 120.101 261.414 120.101H286.643C286.909 120.101 287.173 120.044 287.419 119.932C287.665 119.821 287.888 119.657 288.077 119.45C288.265 119.243 288.415 118.998 288.517 118.728C288.618 118.457 288.671 118.168 288.671 117.875C288.671 117.582 288.618 117.293 288.517 117.023C288.415 116.752 288.265 116.507 288.077 116.3C287.888 116.093 287.665 115.93 287.419 115.818C287.173 115.706 286.909 115.649 286.643 115.649Z" fill="#3F3D56"/>
<path d="M276.688 120.101H257.695C257.158 120.101 256.643 119.866 256.263 119.449C255.884 119.031 255.67 118.465 255.67 117.875C255.67 117.285 255.884 116.719 256.263 116.301C256.643 115.884 257.158 115.649 257.695 115.649H276.688C277.225 115.649 277.74 115.884 278.12 116.301C278.5 116.719 278.713 117.285 278.713 117.875C278.713 118.465 278.5 119.031 278.12 119.449C277.74 119.866 277.225 120.101 276.688 120.101Z" fill="#EAC435"/>
<path d="M248.1 131.721C249.425 131.721 250.499 130.541 250.499 129.085C250.499 127.629 249.425 126.449 248.1 126.449C246.775 126.449 245.702 127.629 245.702 129.085C245.702 130.541 246.775 131.721 248.1 131.721Z" fill="#3F3D56"/>
<path d="M286.643 127.034C286.857 127.033 287.069 127.079 287.266 127.169C287.464 127.259 287.644 127.39 287.795 127.556C287.946 127.722 288.066 127.92 288.148 128.137C288.23 128.354 288.272 128.587 288.272 128.822C288.272 129.057 288.23 129.289 288.148 129.506C288.066 129.724 287.946 129.921 287.795 130.087C287.644 130.253 287.464 130.384 287.266 130.474C287.069 130.564 286.857 130.61 286.643 130.609H261.414C260.982 130.609 260.568 130.421 260.263 130.086C259.958 129.75 259.787 129.296 259.787 128.822C259.787 128.347 259.958 127.893 260.263 127.557C260.568 127.222 260.982 127.034 261.414 127.034H286.643ZM286.643 126.596H261.414C260.877 126.596 260.361 126.83 259.982 127.248C259.602 127.665 259.388 128.231 259.388 128.822C259.388 129.412 259.602 129.978 259.982 130.395C260.361 130.813 260.877 131.047 261.414 131.047H286.643C287.18 131.047 287.695 130.813 288.075 130.395C288.455 129.978 288.668 129.412 288.668 128.822C288.668 128.231 288.455 127.665 288.075 127.248C287.695 126.83 287.18 126.596 286.643 126.596Z" fill="#3F3D56"/>
<path d="M283.86 131.047H257.695C257.158 131.047 256.643 130.813 256.263 130.395C255.884 129.978 255.67 129.412 255.67 128.822C255.67 128.231 255.884 127.665 256.263 127.248C256.643 126.83 257.158 126.596 257.695 126.596H283.86C284.397 126.596 284.912 126.83 285.292 127.248C285.671 127.665 285.885 128.231 285.885 128.822C285.885 129.412 285.671 129.978 285.292 130.395C284.912 130.813 284.397 131.047 283.86 131.047Z" fill="#EAC435"/>
<path d="M248.1 142.668C249.425 142.668 250.499 141.488 250.499 140.032C250.499 138.576 249.425 137.396 248.1 137.396C246.775 137.396 245.702 138.576 245.702 140.032C245.702 141.488 246.775 142.668 248.1 142.668Z" fill="#3F3D56"/>
<path d="M286.643 137.98C286.857 137.98 287.069 138.026 287.266 138.116C287.464 138.205 287.644 138.337 287.795 138.503C287.946 138.669 288.066 138.866 288.148 139.083C288.23 139.3 288.272 139.533 288.272 139.768C288.272 140.003 288.23 140.236 288.148 140.453C288.066 140.67 287.946 140.867 287.795 141.033C287.644 141.199 287.464 141.331 287.266 141.421C287.069 141.51 286.857 141.556 286.643 141.556H261.414C260.982 141.556 260.568 141.368 260.263 141.032C259.958 140.697 259.787 140.242 259.787 139.768C259.787 139.294 259.958 138.839 260.263 138.504C260.568 138.169 260.982 137.98 261.414 137.98H286.643ZM286.643 137.542H261.414C260.877 137.542 260.361 137.777 259.982 138.194C259.602 138.612 259.388 139.178 259.388 139.768C259.388 140.358 259.602 140.925 259.982 141.342C260.361 141.759 260.877 141.994 261.414 141.994H286.643C287.18 141.994 287.695 141.759 288.075 141.342C288.455 140.925 288.668 140.358 288.668 139.768C288.668 139.178 288.455 138.612 288.075 138.194C287.695 137.777 287.18 137.542 286.643 137.542Z" fill="#3F3D56"/>
<path d="M268.321 141.994H257.695C257.429 141.994 257.166 141.937 256.92 141.825C256.673 141.714 256.45 141.55 256.261 141.343C256.073 141.136 255.924 140.891 255.822 140.621C255.72 140.35 255.667 140.061 255.667 139.768C255.667 139.476 255.72 139.186 255.822 138.916C255.924 138.645 256.073 138.4 256.261 138.193C256.45 137.986 256.673 137.823 256.92 137.711C257.166 137.599 257.429 137.542 257.695 137.542H268.321C268.857 137.543 269.371 137.778 269.751 138.196C270.13 138.613 270.343 139.178 270.343 139.768C270.343 140.358 270.13 140.923 269.751 141.341C269.371 141.758 268.857 141.993 268.321 141.994Z" fill="#EAC435"/>
<path d="M220.93 49.3522H41.7095V150.29H220.93V49.3522Z" fill="#F2F2F2"/>
<path d="M214.956 54.3678H47.6836V145.275H214.956V54.3678Z" fill="white"/>
<path d="M194.211 131.406H72.2722C72.171 131.406 72.074 131.362 72.0024 131.283C71.9308 131.205 71.8906 131.098 71.8906 130.987V66.7591C71.8906 66.6479 71.9308 66.5412 72.0024 66.4625C72.074 66.3839 72.171 66.3397 72.2722 66.3397C72.3734 66.3397 72.4705 66.3839 72.5421 66.4625C72.6136 66.5412 72.6539 66.6479 72.6539 66.7591V130.567H194.211C194.312 130.567 194.409 130.612 194.481 130.69C194.552 130.769 194.592 130.876 194.592 130.987C194.592 131.098 194.552 131.205 194.481 131.283C194.409 131.362 194.312 131.406 194.211 131.406Z" fill="#3F3D56"/>
<path d="M98.3251 126.793H87.2344C86.9341 126.793 86.6461 126.662 86.4338 126.428C86.2214 126.195 86.1019 125.878 86.1016 125.548V108.747C86.1019 108.417 86.2214 108.101 86.4338 107.867C86.6461 107.634 86.9341 107.503 87.2344 107.502H98.3251C98.6255 107.503 98.9134 107.634 99.1258 107.867C99.3381 108.101 99.4576 108.417 99.458 108.747V125.548C99.4576 125.878 99.3381 126.195 99.1258 126.428C98.9134 126.662 98.6255 126.793 98.3251 126.793Z" fill="#EAC435"/>
<path d="M118.55 126.793H107.46C107.159 126.793 106.871 126.661 106.659 126.428C106.447 126.195 106.327 125.878 106.327 125.548V92.811C106.327 92.4809 106.447 92.1645 106.659 91.9312C106.871 91.6978 107.159 91.5665 107.46 91.5662H118.55C118.851 91.5665 119.139 91.6978 119.351 91.9312C119.563 92.1645 119.683 92.4809 119.683 92.811V125.548C119.683 125.878 119.563 126.195 119.351 126.428C119.139 126.661 118.851 126.793 118.55 126.793Z" fill="#EAC435"/>
<path d="M138.776 126.793H127.685C127.385 126.793 127.097 126.662 126.885 126.428C126.672 126.195 126.553 125.878 126.552 125.548V108.747C126.553 108.417 126.672 108.101 126.885 107.867C127.097 107.634 127.385 107.503 127.685 107.502H138.776C139.076 107.503 139.364 107.634 139.577 107.867C139.789 108.101 139.908 108.417 139.909 108.747V125.548C139.908 125.878 139.789 126.195 139.577 126.428C139.364 126.662 139.076 126.793 138.776 126.793Z" fill="#EAC435"/>
<path d="M159.002 126.793H147.911C147.617 126.8 147.333 126.679 147.121 126.456C146.909 126.233 146.785 125.927 146.778 125.605V86.464C146.785 86.1415 146.909 85.8353 147.121 85.6125C147.333 85.3898 147.617 85.2686 147.911 85.2756H159.002C159.295 85.2686 159.579 85.3898 159.791 85.6125C160.004 85.8353 160.127 86.1415 160.134 86.464V125.605C160.127 125.927 160.004 126.233 159.791 126.456C159.579 126.679 159.295 126.8 159.002 126.793Z" fill="#EAC435"/>
<path d="M179.227 126.793H168.136C167.836 126.793 167.548 126.661 167.336 126.428C167.123 126.195 167.004 125.878 167.003 125.548V75.1974C167.004 74.8674 167.123 74.551 167.336 74.3176C167.548 74.0843 167.836 73.953 168.136 73.9526H179.227C179.527 73.953 179.815 74.0843 180.028 74.3176C180.24 74.551 180.359 74.8674 180.36 75.1974V125.548C180.359 125.878 180.24 126.195 180.028 126.428C179.815 126.661 179.527 126.793 179.227 126.793Z" fill="#EAC435"/>
<path d="M92.7798 102.47C94.0443 102.47 95.0694 101.343 95.0694 99.9535C95.0694 98.5638 94.0443 97.4373 92.7798 97.4373C91.5152 97.4373 90.4901 98.5638 90.4901 99.9535C90.4901 101.343 91.5152 102.47 92.7798 102.47Z" fill="#3F3D56"/>
<path d="M113.005 86.1143C114.27 86.1143 115.295 84.9878 115.295 83.5981C115.295 82.2085 114.27 81.0819 113.005 81.0819C111.741 81.0819 110.715 82.2085 110.715 83.5981C110.715 84.9878 111.741 86.1143 113.005 86.1143Z" fill="#3F3D56"/>
<path d="M133.231 102.47C134.495 102.47 135.52 101.343 135.52 99.9535C135.52 98.5638 134.495 97.4373 133.231 97.4373C131.966 97.4373 130.941 98.5638 130.941 99.9535C130.941 101.343 131.966 102.47 133.231 102.47Z" fill="#3F3D56"/>
<path d="M153.456 78.1463C154.721 78.1463 155.746 77.0198 155.746 75.6301C155.746 74.2404 154.721 73.1139 153.456 73.1139C152.192 73.1139 151.166 74.2404 151.166 75.6301C151.166 77.0198 152.192 78.1463 153.456 78.1463Z" fill="#3F3D56"/>
<path d="M173.682 68.9203C174.946 68.9203 175.971 67.7937 175.971 66.404C175.971 65.0144 174.946 63.8878 173.682 63.8878C172.417 63.8878 171.392 65.0144 171.392 66.404C171.392 67.7937 172.417 68.9203 173.682 68.9203Z" fill="#3F3D56"/>
<path d="M133.279 100.517L113.005 83.8296L93.0085 100.289L92.551 99.6182L113.005 82.7814L133.182 99.3897L153.233 75.277L153.313 75.241L173.539 66.2859L173.824 67.0638L153.679 75.9835L133.279 100.517Z" fill="#3F3D56"/>
<path d="M435.62 307H267.059C266.942 307 266.829 306.949 266.746 306.858C266.663 306.766 266.617 306.643 266.617 306.514C266.617 306.385 266.663 306.261 266.746 306.17C266.829 306.079 266.942 306.028 267.059 306.028H435.62C435.738 306.028 435.85 306.079 435.933 306.17C436.016 306.261 436.063 306.385 436.063 306.514C436.063 306.643 436.016 306.766 435.933 306.858C435.85 306.949 435.738 307 435.62 307Z" fill="#CCCCCC"/>
</g>
<defs>
<clipPath id="clip0">
<rect width="417" height="307" fill="white"/>
</clipPath>
</defs>
</svg>
