<svg width="35" height="35" viewBox="0 0 35 35" fill="none" xmlns="http://www.w3.org/2000/svg">
<path d="M31.032 5.61276C30.6567 5.3063 30.2037 5.10546 29.7214 5.03164C29.239 4.95781 28.7452 5.01376 28.2927 5.19352L4.66815 14.5552C4.16306 14.7593 3.73312 15.1092 3.43537 15.5587C3.13762 16.0082 2.98613 16.5359 3.001 17.0718C3.01587 17.6077 3.1964 18.1265 3.51864 18.5594C3.84088 18.9923 4.28959 19.3188 4.80525 19.4955L9.58394 21.1272L12.2468 29.7733C12.2833 29.8887 12.3361 29.9985 12.4037 30.0994C12.4142 30.1149 12.4287 30.1253 12.4393 30.1421C12.517 30.2483 12.6108 30.3421 12.7174 30.4203C12.7472 30.4432 12.778 30.4648 12.8097 30.485C12.9346 30.5664 13.0728 30.6259 13.2184 30.661L13.2355 30.6623L13.2434 30.6662C13.3315 30.6835 13.4212 30.6922 13.511 30.692L13.5348 30.6882C13.6698 30.686 13.8036 30.6633 13.9316 30.6209C13.9619 30.6105 13.9869 30.595 14.0159 30.5821C14.1116 30.5435 14.2023 30.494 14.2862 30.4345C14.3529 30.3789 14.4197 30.3232 14.4865 30.2676L18.0485 26.4078L23.3611 30.4475C23.8287 30.805 24.4043 30.9994 24.997 31C25.6182 30.9993 26.2203 30.7889 26.7023 30.4042C27.1842 30.0195 27.5168 29.4838 27.6441 28.887L31.9456 8.16183C32.0429 7.69557 32.0093 7.21212 31.8484 6.76314C31.6875 6.31417 31.4053 5.91655 31.032 5.61276ZM14.0331 21.5387C13.8505 21.7175 13.7258 21.9453 13.6745 22.1934L13.2658 24.1395L12.2323 20.7843L17.591 18.045L14.0331 21.5387ZM24.9773 28.4018L18.6984 23.6271C18.4357 23.4281 18.1062 23.3336 17.7756 23.3623C17.4451 23.3911 17.1377 23.5411 16.9148 23.7824L15.7732 25.0181L16.1766 23.094L25.5138 13.929C25.7353 13.7102 25.87 13.4209 25.8934 13.1133C25.9168 12.8057 25.8275 12.5 25.6416 12.2513C25.4557 12.0026 25.1853 11.8273 24.8793 11.7569C24.5734 11.6866 24.2518 11.7259 23.9727 11.8677L10.5726 18.7153L5.66211 16.9516L29.3631 7.64684L24.9773 28.4018Z" fill="#C4C4C4"/>
</svg>
