<svg width="30" height="30" viewBox="0 0 30 30" fill="none" xmlns="http://www.w3.org/2000/svg">
<path d="M19.796 16.8C19.884 16.041 19.95 15.282 19.95 14.5C19.95 13.718 19.884 12.959 19.796 12.2H23.514C23.69 12.936 23.8 13.7065 23.8 14.5C23.8 15.2935 23.69 16.064 23.514 16.8H19.796ZM17.849 23.194C18.509 21.9175 19.015 20.5375 19.367 19.1H22.612C21.5463 21.0185 19.8555 22.4718 17.849 23.194ZM17.574 16.8H12.426C12.316 16.041 12.25 15.282 12.25 14.5C12.25 13.718 12.316 12.9475 12.426 12.2H17.574C17.673 12.9475 17.75 13.718 17.75 14.5C17.75 15.282 17.673 16.041 17.574 16.8ZM15 23.654C14.087 22.274 13.35 20.7445 12.899 19.1H17.101C16.65 20.7445 15.913 22.274 15 23.654ZM10.6 9.9H7.388C8.44274 7.9763 10.1323 6.52071 12.14 5.806C11.48 7.0825 10.985 8.4625 10.6 9.9ZM7.388 19.1H10.6C10.985 20.5375 11.48 21.9175 12.14 23.194C10.1365 22.4714 8.44933 21.0179 7.388 19.1ZM6.486 16.8C6.31 16.064 6.2 15.2935 6.2 14.5C6.2 13.7065 6.31 12.936 6.486 12.2H10.204C10.116 12.959 10.05 13.718 10.05 14.5C10.05 15.282 10.116 16.041 10.204 16.8H6.486ZM15 5.3345C15.913 6.7145 16.65 8.2555 17.101 9.9H12.899C13.35 8.2555 14.087 6.7145 15 5.3345ZM22.612 9.9H19.367C19.0227 8.47568 18.5129 7.10078 17.849 5.806C19.873 6.5305 21.556 7.991 22.612 9.9ZM15 3C8.917 3 4 8.175 4 14.5C4 17.55 5.15893 20.4751 7.22183 22.6317C8.24327 23.6996 9.4559 24.5467 10.7905 25.1246C12.1251 25.7025 13.5555 26 15 26C17.9174 26 20.7153 24.7884 22.7782 22.6317C24.8411 20.4751 26 17.55 26 14.5C26 12.9898 25.7155 11.4944 25.1627 10.0991C24.6099 8.7039 23.7996 7.43615 22.7782 6.36827C21.7567 5.3004 20.5441 4.45331 19.2095 3.87539C17.8749 3.29746 16.4445 3 15 3Z" fill="#292929"/>
</svg>
